<?xml version="1.0" encoding="UTF-8" standalone="no"?>
<!-- Created with Inkscape (http://www.inkscape.org/) -->

<svg
   width="210mm"
   height="297mm"
   viewBox="0 0 210 297"
   version="1.1"
   id="svg1"
   xml:space="preserve"
   inkscape:version="1.3 (1:1.3+202307231459+0e150ed6c4)"
   sodipodi:docname="logoblanco.svg"
   xmlns:inkscape="http://www.inkscape.org/namespaces/inkscape"
   xmlns:sodipodi="http://sodipodi.sourceforge.net/DTD/sodipodi-0.dtd"
   xmlns="http://www.w3.org/2000/svg"
   xmlns:svg="http://www.w3.org/2000/svg"><sodipodi:namedview
     id="namedview1"
     pagecolor="#ffffff"
     bordercolor="#000000"
     borderopacity="0.25"
     inkscape:showpageshadow="2"
     inkscape:pageopacity="0.0"
     inkscape:pagecheckerboard="0"
     inkscape:deskcolor="#d1d1d1"
     inkscape:document-units="mm"
     inkscape:zoom="0.68417508"
     inkscape:cx="1766.3607"
     inkscape:cy="717.65256"
     inkscape:window-width="1680"
     inkscape:window-height="987"
     inkscape:window-x="1366"
     inkscape:window-y="30"
     inkscape:window-maximized="1"
     inkscape:current-layer="layer1" /><defs
     id="defs1" /><g
     inkscape:label="Capa 1"
     inkscape:groupmode="layer"
     id="layer1"><path
       id="path25"
       style="fill:#333333;stroke-width:1.05833;stroke-linecap:round;stroke-linejoin:round;paint-order:markers stroke fill"
       d="M 381.54157 120.13169 C 376.00039 120.15389 372.20465 120.74685 367.46646 122.33103 C 360.46658 124.67142 354.54394 128.39854 348.9849 133.96133 C 341.90066 141.05036 337.03296 150.33303 335.36816 159.92822 C 334.9632 162.26226 334.42093 168.36937 334.50103 169.69559 C 334.52303 170.05937 334.58067 170.95235 334.62867 171.67996 C 335.30601 181.94053 339.26668 191.78311 345.96803 199.85809 C 348.86655 203.35071 352.75293 206.72171 357.33219 209.71536 C 359.97334 211.442 363.97306 213.56523 364.15813 213.33892 C 364.21193 213.27312 364.99489 212.14797 365.89808 210.83829 C 366.80127 209.5286 370.92547 203.63499 375.06289 197.74142 C 381.06442 189.19253 386.58314 181.29481 391.98331 173.52739 C 392.1236 173.32548 392.1832 173.11577 392.1156 173.06127 C 392.048 173.00677 389.49229 171.07812 386.43636 168.77523 C 383.38043 166.47233 380.79059 164.5104 380.68116 164.4158 C 380.57174 164.3212 381.28611 163.09189 382.26866 161.68367 C 383.25122 160.27545 384.51297 158.45965 385.07262 157.64878 C 385.63228 156.8379 386.2219 156.21852 386.38262 156.27212 C 386.87461 156.4361 406.11532 171.40058 406.13232 171.63242 C 406.14872 171.85666 404.56368 174.19956 399.92494 180.80809 C 388.54927 197.01431 375.45615 215.98327 375.45615 216.25812 C 375.45615 216.79891 384.7202 216.98851 388.02386 216.51547 C 389.04251 216.36961 391.27429 215.8998 392.98325 215.47109 C 401.12028 213.42988 408.0443 209.49941 414.19539 203.42996 C 427.84944 189.95711 432.49467 170.91984 426.51247 152.95035 C 422.82278 141.86721 414.52763 132.00391 403.70507 125.83108 L 401.25303 124.43271 L 400.80189 125.03733 C 399.22816 127.1462 378.52526 156.78438 374.59936 162.54873 L 372.5292 165.58886 L 373.26404 166.12061 C 374.74008 167.18924 382.75307 173.50099 383.4598 174.15164 C 384.1727 174.80798 384.1774 174.83195 383.69699 175.36707 C 383.42738 175.66738 382.16068 177.43134 380.88218 179.28673 C 379.60368 181.14212 378.51435 182.66017 378.46165 182.66017 C 378.40895 182.66017 377.18922 181.73743 375.75071 180.60965 C 374.31221 179.48187 369.73967 175.93975 365.59009 172.73829 L 358.04533 166.91746 L 359.19048 165.32996 C 363.30295 159.62839 381.71818 133.64717 384.252 129.97191 C 384.89053 129.04573 386.57666 126.64156 387.99854 124.62909 C 389.42042 122.61661 390.53542 120.92191 390.47642 120.86291 C 390.10746 120.49395 385.48662 120.11589 381.54157 120.13169 z M 397.34009 144.86248 L 397.34009 144.86299 C 397.4885 144.86179 397.65608 144.88032 397.8584 144.91312 C 399.65626 145.20487 400.4705 146.70742 399.66966 148.25607 C 398.90291 149.7388 397.20055 149.92417 395.93862 148.66224 C 395.02747 147.75109 395.09082 146.58051 396.10605 145.56528 C 396.62288 145.04844 396.89488 144.86648 397.34009 144.86248 z M 363.38195 190.24782 C 363.42978 190.24662 363.47768 190.24664 363.52561 190.24834 C 364.80397 190.29344 366.0921 191.3568 365.84279 192.89314 C 365.53044 194.81791 363.35277 195.46792 361.94225 194.05741 C 361.07516 193.19032 360.98175 192.5206 361.56914 191.3847 C 361.96871 190.61203 362.66454 190.26578 363.38195 190.24782 z "
       inkscape:export-filename="logo.svg"
       inkscape:export-xdpi="96"
       inkscape:export-ydpi="96" /><rect
       style="fill:#000000;stroke-width:1.05833;stroke-linecap:round;stroke-linejoin:round;paint-order:markers stroke fill"
       id="rect23"
       width="185.19617"
       height="151.18126"
       x="2.4148207"
       y="73.357384" /><path
       style="fill:#ffffff;stroke-width:1.05833;stroke-linecap:round;stroke-linejoin:round;paint-order:markers stroke fill"
       d="m 546.3568,112.28516 c -2.14608,0.0229 -4.27499,0.1665 -6.34845,0.4346 -24.58249,3.17849 -44.82488,23.43263 -48.49782,48.52572 -0.52529,3.5887 -0.73993,11.15535 -0.40152,14.15521 0.90293,8.00401 2.64785,13.92943 6.17016,20.95272 6.628,13.21584 18.93517,23.7495 33.17989,28.3993 5.81182,1.89711 10.42528,2.62644 16.65996,2.63344 14.51333,0.0164 27.91961,-5.45088 38.70204,-15.78302 9.88487,-9.47207 15.72935,-21.31615 17.47232,-35.40869 0.60067,-4.85667 0.31004,-12.31967 -0.68627,-17.62218 -2.83943,-15.11186 -12.60819,-29.29851 -26.03045,-37.80132 -2.75059,-1.74245 -8.3488,-4.44385 -11.47578,-5.53816 -5.71326,-1.9994 -12.30586,-3.01648 -18.74408,-2.94762 z"
       id="path24" /><path
       style="fill:#ffffff;stroke-width:1.05833;stroke-linecap:round;stroke-linejoin:round;paint-order:markers stroke fill"
       d="m 247.67926,100.38175 c 1.53611,0.0179 3.07643,0.0974 4.61781,0.24029 23.05931,2.13794 43.33928,17.51561 52.11414,39.51594 4.69286,11.76594 5.52081,26.11742 2.24947,38.99762 -2.71701,10.69762 -7.85381,19.86835 -15.59491,27.84068 -4.97538,5.12399 -8.48474,7.84805 -14.65647,11.37708 -13.33451,7.62476 -30.22503,9.71218 -45.1249,5.57744 -14.91436,-4.13875 -28.98945,-14.8458 -36.84891,-28.03188 -5.18025,-8.69106 -8.27904,-18.7524 -8.79223,-28.54399 -0.1034,-1.98179 -0.15326,-4.25772 -0.10956,-5.05809 0.0437,-0.80036 0.13919,-2.70537 0.21239,-4.23334 0.34914,-7.28706 2.59869,-15.53803 6.26525,-22.98102 10.53245,-21.38045 32.62641,-34.96963 55.66792,-34.70073 z"
       id="path23" /></g></svg>
