<?xml version="1.0" standalone="no"?>
<!DOCTYPE svg PUBLIC "-//W3C//DTD SVG 20010904//EN"
 "http://www.w3.org/TR/2001/REC-SVG-20010904/DTD/svg10.dtd">
<svg version="1.0" xmlns="http://www.w3.org/2000/svg"
 width="378.000000pt" height="378.000000pt" viewBox="0 0 378.000000 378.000000"
 preserveAspectRatio="xMidYMid meet">
<metadata>
Created by potrace 1.14, written by Peter Selinger 2001-2017
</metadata>
<g transform="translate(0.000000,378.000000) scale(0.100000,-0.100000)"
fill="#000000" stroke="none">
<path d="M1670 3769 c-322 -37 -642 -175 -907 -391 -176 -143 -356 -355 -467
-548 -73 -128 -156 -325 -181 -430 -1 -3 -6 -23 -13 -45 -46 -164 -69 -465
-50 -666 23 -245 127 -553 265 -783 177 -296 472 -567 796 -731 121 -61 139
-58 200 28 24 34 108 154 187 267 79 113 159 228 179 255 19 28 66 95 105 150
77 111 93 133 224 320 50 72 96 137 102 145 5 8 34 49 63 90 197 278 202 289
148 338 -16 15 -108 86 -204 157 -97 72 -176 134 -176 138 -1 7 109 168 130
191 5 5 33 -9 66 -35 157 -120 560 -433 576 -449 18 -17 17 -20 -29 -86 -54
-78 -237 -339 -256 -367 -403 -572 -800 -1150 -821 -1196 -16 -37 -17 -47 -6
-67 22 -42 66 -49 309 -48 195 0 239 3 330 23 413 88 739 279 1022 596 169
189 309 428 387 660 44 131 44 132 73 285 28 148 30 495 4 625 -72 349 -163
561 -349 813 -164 224 -400 427 -668 575 -74 41 -103 42 -134 1 -27 -36 -284
-400 -557 -789 -103 -146 -414 -594 -475 -683 -34 -52 -63 -102 -63 -113 0
-26 39 -65 140 -141 137 -103 270 -210 270 -217 0 -7 -82 -126 -117 -170 l-20
-24 -102 79 c-206 159 -356 275 -371 288 -9 6 -42 32 -75 56 -33 25 -69 53
-79 63 -11 9 -24 17 -29 17 -5 0 -7 6 -4 13 3 7 130 188 282 403 153 214 321
450 373 524 52 74 116 164 142 200 26 36 105 148 177 250 230 328 232 332 207
368 -7 11 -11 22 -8 24 6 7 -42 25 -91 34 -57 10 -427 12 -505 3z m850 -1066
c0 -5 -4 -14 -9 -22 -8 -12 -12 -12 -25 -2 -9 7 -13 17 -10 22 6 11 44 12 44
2z m-1295 -1722 c0 -8 -4 -16 -10 -18 -16 -5 -38 14 -30 26 9 16 40 9 40 -8z"/>
</g>
</svg>
